{
	"asset":{
		"generator":"Khronos glTF Blender I/O v4.4.55",
		"version":"2.0"
	},
	"scene":0,
	"scenes":[
		{
			"name":"Scene",
			"nodes":[
				0,
				1
			]
		}
	],
	"nodes":[
		{
			"name":"Empty",
			"rotation":[
				0.70710688829422,
				0,
				0,
				0.7071066498756409
			],
			"translation":[
				0.49000000953674316,
				-1.149999976158142,
				0
			]
		},
		{
			"mesh":0,
			"name":"Gear Icon",
			"rotation":[
				0.7052448391914368,
				0.07592549920082092,
				0.04277932271361351,
				0.7035872340202332
			],
			"scale":[
				0.6999999284744263,
				0.13999998569488525,
				0.699999988079071
			]
		}
	],
	"meshes":[
		{
			"name":"Cylinder.001",
			"primitives":[
				{
					"attributes":{
						"POSITION":0,
						"NORMAL":1,
						"TEXCOORD_0":2
					},
					"indices":3
				}
			]
		}
	],
	"accessors":[
		{
			"bufferView":0,
			"componentType":5126,
			"count":198,
			"max":[
				1.2675014734268188,
				1.0199998617172241,
				1.2675014734268188
			],
			"min":[
				-1.2675014734268188,
				-1.0199998617172241,
				-1.2675014734268188
			],
			"type":"VEC3"
		},
		{
			"bufferView":1,
			"componentType":5126,
			"count":198,
			"type":"VEC3"
		},
		{
			"bufferView":2,
			"componentType":5126,
			"count":198,
			"type":"VEC2"
		},
		{
			"bufferView":3,
			"componentType":5123,
			"count":1152,
			"type":"SCALAR"
		}
	],
	"bufferViews":[
		{
			"buffer":0,
			"byteLength":2376,
			"byteOffset":0,
			"target":34962
		},
		{
			"buffer":0,
			"byteLength":2376,
			"byteOffset":2376,
			"target":34962
		},
		{
			"buffer":0,
			"byteLength":1584,
			"byteOffset":4752,
			"target":34962
		},
		{
			"buffer":0,
			"byteLength":2304,
			"byteOffset":6336,
			"target":34963
		}
	],
	"buffers":[
		{
			"byteLength":8640,
			"uri":"gear.bin"
		}
	]
}
