<?xml version="1.0" encoding="UTF-8"?>
<svg id="Layer_1" data-name="Layer 1" xmlns="http://www.w3.org/2000/svg" viewBox="0 0 4168.71 913">
  <defs>
    <style>
      .cls-1 {
        fill: #0d0c22;
      }

      .cls-2 {
        fill-rule: evenodd;
      }

      .cls-2, .cls-3 {
        fill: #1a1b1f;
      }

      .cls-4 {
        fill: #e5e5ef;
      }
    </style>
  </defs>
  <path class="cls-1" d="M564.72,211.38l-.63-.37-1.45-.44c.58.49,1.31.78,2.08.81h0Z"/>
  <path class="cls-1" d="M573.85,277.61l-.7.2.7-.2Z"/>
  <path class="cls-1" d="M564.99,212.28c-.09-.01-.18-.03-.26-.06,0,.06,0,.12,0,.17.1-.01.19-.05.26-.11h0Z"/>
  <path class="cls-1" d="M564.73,212.39h.09v-.06l-.09.06Z"/>
  <path class="cls-1" d="M573.29,277.49l1.06-.6.39-.22.36-.38c-.67.29-1.28.7-1.81,1.2h0Z"/>
  <path class="cls-1" d="M566.55,213.8l-1.03-.98-.7-.38c.38.66,1,1.15,1.73,1.36h0Z"/>
  <path class="cls-1" d="M306.96,846.74c-.82.36-1.55.91-2.1,1.62l.65-.42c.44-.4,1.07-.88,1.45-1.2Z"/>
  <path class="cls-1" d="M457.7,817.09c0-.93-.45-.76-.34,2.55,0-.27.11-.54.16-.8.06-.59.11-1.17.18-1.76Z"/>
  <path class="cls-1" d="M442.07,846.74c-.82.36-1.55.91-2.1,1.62l.65-.42c.44-.4,1.07-.88,1.45-1.2Z"/>
  <path class="cls-1" d="M200.81,853.79c-.63-.54-1.39-.9-2.21-1.03.66.32,1.33.64,1.77.88l.44.15Z"/>
  <path class="cls-1" d="M176.92,830.92c-.1-.97-.39-1.9-.87-2.75.34.88.62,1.78.85,2.7l.02.05Z"/>
  <path class="cls-4" d="M337.38,421.76c-32.79,14.04-70.01,29.96-118.24,29.96-20.18-.04-40.26-2.81-59.69-8.23l33.36,342.5c1.18,14.32,7.7,27.66,18.27,37.39,10.57,9.73,24.41,15.13,38.77,15.13,0,0,47.3,2.46,63.08,2.46,16.99,0,67.92-2.46,67.92-2.46,14.36,0,28.2-5.4,38.76-15.13,10.57-9.73,17.08-23.08,18.26-37.39l35.73-378.48c-15.97-5.45-32.08-9.08-50.25-9.08-31.42-.01-56.73,10.81-85.98,23.32Z"/>
  <path class="cls-1" d="M56.17,275.64l.57.53.37.22c-.28-.28-.6-.53-.93-.75h0Z"/>
  <path class="cls-3" d="M627.87,244.02l-5.02-25.34c-4.51-22.74-14.74-44.22-38.08-52.43-7.48-2.63-15.97-3.76-21.7-9.2-5.74-5.44-7.43-13.89-8.76-21.73-2.46-14.38-4.77-28.78-7.28-43.14-2.17-12.34-3.89-26.21-9.56-37.54-7.37-15.21-22.66-24.1-37.87-29.98-7.79-2.91-15.74-5.37-23.82-7.37-37.99-10.02-77.93-13.71-117.02-15.81-46.91-2.59-93.95-1.81-140.75,2.33-34.83,3.17-71.52,7-104.62,19.05-12.1,4.41-24.57,9.7-33.76,19.05-11.29,11.48-14.97,29.24-6.73,43.57,5.86,10.17,15.78,17.35,26.31,22.11,13.71,6.12,28.03,10.79,42.72,13.9,40.9,9.04,83.26,12.59,125.05,14.1,46.31,1.87,92.7.35,138.79-4.53,11.4-1.25,22.78-2.76,34.13-4.51,13.38-2.05,21.96-19.54,18.02-31.73-4.72-14.57-17.39-20.22-31.73-18.02-2.11.33-4.21.64-6.33.95l-1.52.22c-4.86.61-9.71,1.19-14.57,1.72-10.03,1.08-20.09,1.97-30.17,2.65-22.58,1.57-45.21,2.3-67.84,2.33-22.23,0-44.48-.63-66.66-2.09-10.12-.66-20.22-1.51-30.29-2.53-4.58-.48-9.15-.98-13.72-1.55l-4.35-.55-.94-.14-4.51-.65c-9.21-1.39-18.42-2.98-27.54-4.91-.92-.2-1.74-.72-2.33-1.45-.59-.73-.91-1.65-.91-2.59s.32-1.86.91-2.59c.59-.73,1.41-1.25,2.33-1.45h.17c7.9-1.68,15.86-3.12,23.84-4.37,2.66-.42,5.33-.83,8.01-1.23h.07c5-.33,10.02-1.23,15-1.82,43.28-4.5,86.82-6.04,130.31-4.59,21.11.61,42.22,1.85,63.23,3.99,4.52.47,9.02.96,13.51,1.51,1.72.21,3.45.45,5.18.66l3.49.5c10.17,1.51,20.29,3.35,30.35,5.51,14.91,3.24,34.06,4.3,40.69,20.63,2.11,5.18,3.07,10.94,4.24,16.39l1.49,6.94c.04.12.07.25.09.38,3.51,16.38,7.03,32.75,10.55,49.13.26,1.21.26,2.46.02,3.67-.25,1.21-.74,2.36-1.45,3.37-.71,1.01-1.62,1.87-2.68,2.51-1.05.65-2.23,1.07-3.46,1.24h-.1l-2.15.29-2.12.28c-6.73.88-13.47,1.69-20.22,2.46-13.29,1.51-26.6,2.82-39.93,3.93-26.49,2.2-53.03,3.65-79.63,4.34-13.55.36-27.1.53-40.64.5-53.91-.04-107.77-3.18-161.32-9.38-5.8-.69-11.59-1.43-17.39-2.17,4.5.58-3.27-.44-4.84-.66-3.68-.52-7.37-1.05-11.05-1.61-12.37-1.85-24.66-4.14-37.01-6.14-14.92-2.46-29.2-1.23-42.69,6.14-11.08,6.06-20.05,15.36-25.71,26.65-5.82,12.04-7.55,25.14-10.16,38.08-2.6,12.93-6.66,26.85-5.12,40.13,3.3,28.66,23.34,51.94,52.15,57.15,27.11,4.91,54.36,8.89,81.69,12.28,107.35,13.15,215.81,14.72,323.5,4.69,8.77-.82,17.53-1.71,26.27-2.68,2.73-.3,5.49.01,8.09.92,2.59.91,4.95,2.38,6.9,4.32,1.95,1.94,3.44,4.28,4.37,6.87.93,2.59,1.26,5.35.98,8.08l-2.73,26.51c-5.49,53.56-10.99,107.12-16.48,160.67-5.73,56.24-11.5,112.47-17.31,168.7-1.64,15.84-3.27,31.67-4.91,47.5-1.57,15.59-1.79,31.66-4.75,47.07-4.67,24.22-21.07,39.1-44.99,44.54-21.92,4.99-44.31,7.61-66.79,7.81-24.92.14-49.83-.97-74.75-.84-26.6.15-59.19-2.31-79.73-22.11-18.04-17.39-20.54-44.62-22.99-68.17-3.27-31.17-6.52-62.34-9.74-93.51l-18.06-173.29-11.68-112.13c-.2-1.86-.39-3.69-.58-5.55-1.4-13.38-10.87-26.47-25.79-25.79-12.77.57-27.29,11.42-25.79,25.79l8.66,83.13,17.91,171.96c5.1,48.84,10.19,97.7,15.27,146.56.98,9.36,1.9,18.74,2.94,28.1,5.61,51.14,44.67,78.71,93.04,86.47,28.25,4.54,57.19,5.48,85.86,5.95,36.75.59,73.87,2,110.02-4.66,53.56-9.83,93.75-45.59,99.49-101.07,1.64-16.02,3.28-32.04,4.91-48.06,5.45-52.99,10.88-105.99,16.31-159l17.76-173.19,8.14-79.37c.41-3.93,2.07-7.64,4.74-10.55,2.67-2.92,6.21-4.9,10.1-5.65,15.32-2.98,29.96-8.08,40.85-19.74,17.34-18.56,20.79-42.76,14.67-67.15ZM51.7,261.15c.23-.11-.2,1.89-.38,2.82-.04-1.41.04-2.66.38-2.82ZM53.19,272.64c.12-.09.49.4.87.99-.58-.54-.95-.95-.88-.99h.01ZM54.65,274.57c.53.9.81,1.46,0,0h0ZM57.59,276.95h.07c0,.09.14.17.18.26-.08-.1-.17-.18-.27-.26h.01ZM571.64,273.39c-5.5,5.23-13.79,7.66-21.99,8.88-91.87,13.63-185.09,20.54-277.97,17.49-66.47-2.27-132.25-9.65-198.06-18.95-6.45-.91-13.44-2.09-17.87-6.84-8.35-8.97-4.25-27.02-2.08-37.85,1.99-9.92,5.8-23.15,17.6-24.57,18.42-2.16,39.82,5.61,58.05,8.38,21.94,3.35,43.97,6.03,66.08,8.04,94.36,8.6,190.29,7.26,284.23-5.32,17.12-2.3,34.18-4.97,51.18-8.02,15.15-2.71,31.93-7.81,41.09,7.87,6.28,10.69,7.11,24.98,6.14,37.06-.3,5.26-2.6,10.21-6.42,13.83h.01Z"/>
  <path class="cls-2" d="M1128.89,528.66c-5.36,10.24-12.74,19.16-22.12,26.72-9.39,7.57-20.34,13.74-32.86,18.48-12.51,4.76-25.11,7.95-37.77,9.58-12.67,1.63-24.97,1.49-36.88-.45-11.92-1.93-22.06-5.86-30.4-11.8l9.39-97.54c8.64-2.97,19.51-6.01,32.63-9.13,13.11-3.11,26.59-5.35,40.45-6.68,13.86-1.34,26.97-1.18,39.35.45,12.35,1.63,22.12,5.57,29.27,11.81,3.87,3.56,7.16,7.42,9.84,11.58,2.68,4.16,4.32,8.47,4.92,12.92,1.48,12.47-.45,23.83-5.82,34.07ZM992.55,320.87c6.26-3.86,13.78-7.28,22.57-10.25,8.79-2.96,17.81-5.05,27.05-6.23,9.23-1.18,18.25-1.34,27.05-.45,8.78.89,16.54,3.34,23.24,7.35,6.71,4.01,11.7,9.8,14.97,17.37,3.28,7.58,4.18,17.16,2.69,28.73-1.19,9.2-4.85,17-10.95,23.38-6.11,6.39-13.57,11.73-22.35,16.04-8.8,4.31-18.11,7.73-27.94,10.24-9.84,2.53-19.31,4.39-28.39,5.57-9.09,1.19-16.99,1.94-23.69,2.23-6.71.3-11.11.45-13.19.45l8.94-94.43ZM1177.17,465.63c-4.77-10.39-11.17-19.52-19.22-27.39-8.04-7.87-17.59-13.58-28.61-17.14,4.77-3.86,9.46-9.95,14.08-18.26,4.62-8.31,8.57-17.37,11.85-27.17,3.27-9.8,5.51-19.67,6.7-29.62,1.19-9.95.74-18.48-1.33-25.62-5.08-17.81-13.05-31.77-23.93-41.87-10.88-10.09-23.54-17.07-37.99-20.94-14.46-3.85-30.4-4.67-47.83-2.45-17.44,2.23-35.25,6.61-53.42,13.14,0-1.48.15-3.04.45-4.67.29-1.63.44-3.34.44-5.12,0-4.45-2.23-8.31-6.7-11.58-4.47-3.27-9.61-5.19-15.42-5.79-5.81-.59-11.48.67-16.99,3.79-5.52,3.12-9.32,8.84-11.4,17.14-2.39,26.73-4.77,54.5-7.15,83.29-2.39,28.81-4.92,57.91-7.6,87.31-2.68,29.39-5.36,58.57-8.05,87.52-2.68,28.96-5.36,56.79-8.05,83.51.9,8.02,3.13,14.26,6.71,18.71,3.57,4.46,7.75,7.13,12.52,8.02,4.76.89,9.76.07,14.97-2.45,5.21-2.51,9.76-6.9,13.64-13.14,11.92,6.53,25.33,10.77,40.23,12.7,14.9,1.93,30.02,1.93,45.37,0,15.34-1.93,30.47-5.57,45.37-10.92,14.9-5.34,28.46-12.03,40.68-20.04,12.22-8.02,22.5-17.15,30.85-27.4,8.34-10.25,13.85-21.31,16.54-33.18,2.68-12.18,3.42-24.35,2.23-36.53-1.19-12.17-4.17-23.45-8.94-33.85Z"/>
  <path class="cls-2" d="M1613.27,700.8c-1.64,9.8-3.96,20.12-6.93,30.96-2.99,10.83-6.49,20.71-10.51,29.62-4.02,8.91-8.49,16.1-13.4,21.6-4.93,5.49-10.22,7.8-15.88,6.91-4.47-.6-7.3-3.42-8.49-8.46-1.19-5.06-1.19-11.29,0-18.71,1.19-7.42,3.5-15.82,6.93-25.17,3.42-9.35,7.6-18.64,12.51-27.84,4.93-9.21,10.51-18.04,16.77-26.5,6.26-8.46,12.81-15.52,19.67-21.16,1.49,1.78,2.16,6.23,2.01,13.36-.16,7.12-1.05,15.59-2.68,25.38ZM1764.81,507.49c-4.02-4.45-8.94-6.97-14.75-7.57-5.81-.59-11.7,2.67-17.66,9.8-3.88,7.12-8.79,13.96-14.75,20.49-5.97,6.54-12.15,12.47-18.56,17.82-6.4,5.34-12.51,9.95-18.32,13.8-5.81,3.87-10.36,6.69-13.64,8.47-1.19-9.5-1.86-19.74-2.01-30.73-.16-10.98.07-22.12.67-33.4.89-16.04,2.75-32.21,5.59-48.55,2.83-16.33,6.93-32.37,12.29-48.11,0-8.31-1.94-15.06-5.81-20.26-3.88-5.19-8.57-8.46-14.08-9.8-5.52-1.33-11.17-.59-16.99,2.23-5.81,2.83-10.8,7.95-14.97,15.37-3.58,9.8-7.68,20.79-12.29,32.96-4.63,12.18-9.84,24.57-15.65,37.19-5.81,12.63-12.3,24.87-19.45,36.75-7.15,11.88-14.97,22.43-23.47,31.63-8.49,9.2-17.73,16.41-27.71,21.6-9.99,5.2-20.78,7.5-32.41,6.91-5.37-1.49-9.24-5.49-11.63-12.03-2.38-6.53-3.8-14.7-4.24-24.5-.45-9.8,0-20.56,1.34-32.3,1.34-11.73,3.13-23.38,5.36-34.96,2.24-11.58,4.7-22.57,7.38-32.96,2.68-10.39,5.21-19.16,7.6-26.28,3.58-8.61,3.58-15.82,0-21.6-3.58-5.79-8.49-9.65-14.75-11.58-6.26-1.93-12.82-1.85-19.67.23-6.86,2.08-11.78,6.68-14.75,13.8-5.07,12.18-9.69,25.83-13.86,40.98-4.18,15.14-7.53,30.81-10.06,46.99-2.54,16.19-3.96,32.23-4.25,48.11-.02,1.03.03,2.02.03,3.05-6.5,17.26-12.7,30.31-18.58,39.04-7.6,11.29-16.17,16.19-25.7,14.7-4.18-1.78-6.93-5.93-8.27-12.47-1.35-6.53-1.8-14.54-1.35-24.06.46-9.49,1.57-20.26,3.35-32.29,1.8-12.02,4.03-24.5,6.71-37.41,2.69-12.92,5.52-25.9,8.49-38.97,2.98-13.06,5.66-25.39,8.06-36.97-.3-10.39-3.36-18.33-9.17-23.83-5.81-5.49-13.94-7.64-24.36-6.46-7.15,2.97-12.45,6.84-15.88,11.58-3.43,4.75-6.18,10.84-8.26,18.26-1.2,3.87-2.99,11.58-5.37,23.17-2.39,11.57-5.44,24.87-9.16,39.86-3.73,15-8.12,30.66-13.19,46.99-5.07,16.33-10.73,31.11-16.98,44.32-6.27,13.21-13.12,23.83-20.57,31.85-7.45,8.01-15.5,11.28-24.14,9.8-4.77-.89-7.82-5.79-9.16-14.7-1.34-8.91-1.57-19.89-.67-32.96.89-13.06,2.68-27.4,5.36-42.98,2.68-15.59,5.43-30.36,8.27-44.32,2.83-13.95,5.44-26.28,7.83-36.97,2.38-10.69,4.02-17.82,4.91-21.38,0-8.61-1.94-15.51-5.81-20.72-3.88-5.19-8.57-8.46-14.08-9.8-5.52-1.33-11.18-.59-16.99,2.23-5.81,2.83-10.8,7.95-14.98,15.36-1.49,8.02-3.43,17.3-5.81,27.84-2.39,10.54-4.69,21.38-6.92,32.52-2.24,11.14-4.33,22.05-6.26,32.74-1.94,10.69-3.36,20.04-4.25,28.06-.6,6.23-1.27,13.88-2.01,22.94-.75,9.06-1.12,18.64-1.12,28.73s.74,20.12,2.24,30.07c1.48,9.95,4.17,19.08,8.04,27.39,3.87,8.32,9.31,15.14,16.32,20.49,7,5.35,15.87,8.31,26.6,8.91,11.02.59,20.63-.22,28.83-2.45,8.2-2.23,15.64-5.72,22.35-10.47,6.71-4.74,12.81-10.39,18.33-16.93,5.51-6.53,10.95-13.65,16.32-21.38,5.06,11.29,11.62,20.04,19.67,26.28,8.04,6.23,16.54,9.95,25.48,11.13,8.93,1.18,18.03-.07,27.27-3.79,9.23-3.71,17.57-10.02,25.03-18.93,4.91-5.46,9.54-11.67,13.88-18.54,1.84,3.22,3.8,6.32,6.01,9.18,7.31,9.51,17.22,16.04,29.74,19.6,13.4,3.57,26.51,4.16,39.33,1.79,12.81-2.37,25.03-6.68,36.65-12.92,11.63-6.24,22.43-13.73,32.42-22.5,9.98-8.76,18.69-17.89,26.15-27.4-.31,6.83-.45,13.3-.45,19.38s-.15,12.69-.45,19.82c-14.9,10.4-28.98,22.87-42.24,37.41-13.27,14.54-24.89,30.06-34.87,46.54-9.98,16.48-17.81,33.18-23.46,50.11-5.67,16.93-8.43,32.74-8.28,47.44.15,14.7,3.65,27.54,10.5,38.52,6.86,10.99,18.03,18.86,33.53,23.61,16.1,5.05,30.25,5.19,42.47.45,12.22-4.75,22.87-12.62,31.96-23.61,9.09-10.99,16.54-24.27,22.36-39.86,5.81-15.59,10.43-31.85,13.85-48.77,3.43-16.92,5.59-33.57,6.48-49.89.9-16.34.9-30.89,0-43.66,25.63-10.69,46.64-24.2,63.03-40.53,16.39-16.32,29.95-33.55,40.68-51.67,3.28-4.45,4.4-9.8,3.36-16.03-1.05-6.24-3.58-11.58-7.6-16.04Z"/>
  <path class="cls-2" d="M2328.72,478.99c.89-6.83,2.23-14.03,4.02-21.6,1.78-7.57,4.02-14.92,6.71-22.05,2.67-7.13,5.8-13.29,9.38-18.48,3.58-5.19,7.38-8.9,11.4-11.14,4.03-2.22,8.12-2,12.3.67,4.47,2.68,7.22,8.32,8.27,16.92,1.03,8.62,0,17.82-3.13,27.62-3.14,9.8-8.72,19-16.77,27.62-8.04,8.62-18.92,14.25-32.63,16.92-.6-4.15-.45-9.65.45-16.48ZM2483.61,497.25c-4.92-1.48-9.61-1.63-14.08-.44-4.47,1.19-7.31,4.31-8.49,9.36-2.4,9.5-6.19,19.22-11.41,29.17-5.21,9.95-11.62,19.38-19.21,28.29-7.6,8.91-16.18,16.78-25.71,23.6-9.54,6.83-19.52,11.73-29.95,14.7-10.44,3.27-19.08,3.64-25.93,1.11-6.85-2.51-12.29-6.83-16.31-12.91s-6.93-13.44-8.72-22.05-2.84-17.52-3.13-26.73c16.98,1.19,32.11-1.85,45.38-9.13,13.25-7.27,24.5-16.92,33.74-28.95,9.24-12.02,16.24-25.54,21.01-40.53,4.76-14.99,7.45-29.91,8.05-44.77.29-13.96-1.79-25.76-6.26-35.41-4.47-9.65-10.51-17.16-18.11-22.5-7.59-5.35-16.31-8.46-26.15-9.35-9.82-.89-19.82.45-29.95,4.01-12.22,4.16-22.57,10.91-31.06,20.27-8.5,9.35-15.58,20.2-21.24,32.51-5.66,12.33-10.13,25.61-13.41,39.86-3.28,14.26-5.66,28.29-7.15,42.1-1.34,12.39-2.06,24.24-2.31,35.68-.64,1.45-1.26,2.85-1.94,4.4-4.62,10.55-9.99,20.87-16.09,30.96-6.11,10.1-12.89,18.56-20.34,25.39-7.45,6.83-15.2,9.21-23.25,7.13-4.76-1.18-7.37-6.68-7.82-16.48-.44-9.8.07-21.98,1.56-36.53,1.5-14.55,3.21-30.29,5.15-47.22,1.93-16.92,2.9-33.1,2.9-48.55,0-13.36-2.53-26.2-7.6-38.53-5.07-12.31-12-22.56-20.78-30.73-8.8-8.17-19-13.59-30.62-16.26-11.63-2.68-24.14-.89-37.55,5.34-13.42,6.24-24.07,15-31.96,26.28-7.91,11.29-15.14,23.16-21.69,35.63-2.39-9.51-5.88-18.33-10.5-26.5-4.63-8.17-10.28-15.29-16.99-21.38-6.71-6.08-14.24-10.83-22.57-14.25-8.35-3.41-17.15-5.12-26.38-5.12s-17.21,1.71-24.81,5.12c-7.6,3.42-14.53,7.79-20.79,13.14-6.26,5.35-11.92,11.36-16.99,18.04-5.06,6.68-9.54,13.29-13.4,19.82-.61-7.72-1.28-14.47-2.02-20.27-.74-5.79-2.09-10.69-4.02-14.69-1.94-4.01-4.69-7.05-8.27-9.13-3.58-2.07-8.64-3.12-15.19-3.12-3.29,0-6.57.67-9.84,2-3.29,1.34-6.2,3.2-8.72,5.57-2.54,2.39-4.47,5.27-5.81,8.68-1.35,3.41-1.71,7.35-1.12,11.81.29,3.27,1.12,7.2,2.46,11.8,1.34,4.61,2.6,10.62,3.8,18.04,1.19,7.43,2.16,16.41,2.9,26.95.75,10.54.97,23.46.67,38.75-.3,15.3-1.41,33.18-3.35,53.67-1.94,20.49-5,44.25-9.16,71.26-.6,6.24,1.78,11.29,7.15,15.15,5.36,3.85,11.47,6.08,18.33,6.68,6.85.59,13.34-.6,19.44-3.56,6.11-2.98,9.62-8.17,10.51-15.59.89-13.96,2.61-28.8,5.14-44.54,2.53-15.73,5.66-31.32,9.39-46.77,3.72-15.44,7.96-30.14,12.74-44.1,4.76-13.96,10.06-26.28,15.87-36.97,5.81-10.69,11.85-19.22,18.1-25.61,6.26-6.39,12.81-9.58,19.67-9.58,8.35,0,14.82,3.78,19.45,11.35,4.61,7.58,7.89,17.31,9.83,29.17,1.94,11.88,2.83,24.88,2.69,38.98-.16,14.1-.75,27.69-1.79,40.75-1.05,13.07-2.24,24.72-3.58,34.97-1.34,10.24-2.31,17.3-2.9,21.16,0,6.83,2.6,12.24,7.81,16.26,5.22,4.01,11.03,6.39,17.44,7.13,6.41.75,12.44-.45,18.11-3.57,5.66-3.12,8.93-8.38,9.83-15.81,2.98-21.38,7.08-42.83,12.29-64.36,5.21-21.53,11.18-40.83,17.89-57.9,6.7-17.08,14.15-31.03,22.35-41.87,8.19-10.83,16.91-16.26,26.15-16.26,4.76,0,8.42,3.27,10.95,9.8,2.53,6.53,3.8,15.44,3.8,26.72,0,8.32-.67,16.86-2.01,25.61-1.34,8.76-2.9,17.82-4.7,27.17-1.78,9.36-3.35,18.93-4.69,28.73-1.34,9.8-2.01,20.04-2.01,30.73,0,7.43.74,16.04,2.23,25.84,1.49,9.79,4.32,19.08,8.49,27.84,4.18,8.76,9.91,16.18,17.22,22.27,7.3,6.09,16.61,9.13,27.93,9.13,16.99,0,32.04-3.64,45.16-10.91,13.11-7.27,24.36-16.77,33.75-28.5.48-.62.93-1.27,1.4-1.88.72,1.73,1.36,3.57,2.17,5.22,6.41,13.06,15.13,23.16,26.16,30.29,11.01,7.12,23.98,11.06,38.89,11.8,14.9.73,31.13-2.01,48.73-8.24,13.1-4.75,24.5-10.69,34.19-17.82,9.68-7.13,18.4-15.81,26.15-26.06s14.82-22.05,21.24-35.41c6.41-13.37,12.88-28.66,19.44-45.88,1.19-4.74.07-8.97-3.35-12.69-3.43-3.71-7.6-6.31-12.52-7.8Z"/>
  <path class="cls-2" d="M2726.57,447.57c-1.5,8.76-3.51,18.42-6.04,28.95-2.54,10.54-5.74,21.46-9.61,32.74-3.88,11.29-8.64,21.46-14.3,30.51-5.67,9.06-12.15,16.26-19.45,21.6-7.31,5.35-15.72,7.57-25.26,6.68-4.77-.59-8.42-3.85-10.95-9.8-2.54-5.93-3.88-13.51-4.03-22.72-.15-9.2.67-19.3,2.46-30.29,1.79-10.98,4.55-21.75,8.28-32.29,3.72-10.53,8.27-20.26,13.62-29.18,5.37-8.91,11.55-15.81,18.56-20.71,7-4.9,14.68-7.19,23.02-6.91,8.34.3,17.28,4.45,26.83,12.47-.61,3.86-1.64,10.18-3.13,18.93ZM2885.48,481.65c-4.62-2.37-9.39-2.89-14.3-1.55-4.92,1.33-8.43,5.87-10.51,13.58-1.19,8.32-3.87,18.11-8.04,29.4-4.18,11.29-9.32,21.98-15.42,32.07-6.12,10.1-13.12,18.49-21.02,25.17-7.9,6.68-16.31,9.73-25.25,9.13-7.46-.59-12.68-4.37-15.65-11.35-2.99-6.98-4.55-15.73-4.69-26.28-.16-10.53.89-22.41,3.12-35.63,2.24-13.21,4.92-26.35,8.05-39.43,3.13-13.06,6.33-25.61,9.62-37.63,3.27-12.02,5.95-22.2,8.04-30.51,2.39-7.42,1.64-13.73-2.24-18.94-3.87-5.19-8.71-8.91-14.52-11.13-5.82-2.23-11.7-2.82-17.67-1.78-5.96,1.04-9.82,4.23-11.62,9.57-17.58-15.14-34.49-23.31-50.73-24.5-16.25-1.19-31.23,2.38-44.93,10.69-13.71,8.31-25.85,20.34-36.43,36.08-10.58,15.74-19.15,32.89-25.71,51.45-6.55,18.56-10.65,37.49-12.29,56.79-1.64,19.3-.38,36.9,3.8,52.78,4.18,15.88,11.54,28.88,22.13,38.97,10.57,10.1,24.96,15.15,43.14,15.15,8.04,0,15.79-1.63,23.24-4.9,7.45-3.27,14.31-7.13,20.57-11.58,6.25-4.45,11.77-9.13,16.54-14.03,4.76-4.9,8.49-8.98,11.17-12.25,2.08,10.69,5.52,19.75,10.28,27.17,4.77,7.42,10.21,13.52,16.32,18.26,6.1,4.75,12.52,8.24,19.22,10.47,6.71,2.23,13.19,3.34,19.45,3.34,14.01,0,27.11-4.75,39.34-14.26,12.21-9.49,23.17-21.16,32.86-34.96,9.68-13.81,17.65-28.36,23.91-43.65,6.26-15.29,10.43-28.88,12.51-40.76,2.09-4.45,1.72-9.13-1.11-14.03-2.84-4.9-6.56-8.53-11.18-10.92Z"/>
  <path class="cls-2" d="M3690.14,727.55c-2.53,10.09-6.48,18.64-11.84,25.61-5.36,6.98-12.07,10.62-20.12,10.92-5.06.29-8.94-2.38-11.62-8.02-2.68-5.65-4.54-12.92-5.59-21.82-1.05-8.91-1.49-18.86-1.34-29.85.15-10.98.6-21.82,1.34-32.51.74-10.68,1.64-20.64,2.69-29.84,1.03-9.21,1.85-16.32,2.45-21.38,10.13,1.19,18.56,5.56,25.26,13.14,6.71,7.57,11.84,16.55,15.42,26.95,3.58,10.39,5.66,21.6,6.26,33.63.59,12.03-.38,23.08-2.91,33.18ZM3528.32,727.55c-2.53,10.09-6.48,18.64-11.85,25.61-5.36,6.98-12.06,10.62-20.11,10.92-5.07.29-8.94-2.38-11.62-8.02-2.69-5.65-4.55-12.92-5.59-21.82-1.05-8.91-1.5-18.86-1.34-29.85.14-10.98.59-21.82,1.34-32.51.74-10.68,1.63-20.64,2.68-29.84,1.04-9.21,1.86-16.32,2.46-21.38,10.13,1.19,18.56,5.56,25.25,13.14,6.71,7.57,11.85,16.55,15.43,26.95,3.58,10.39,5.66,21.6,6.26,33.63.59,12.03-.38,23.08-2.91,33.18ZM3362.26,474.55c-.31,7.12-.98,13.43-2.02,18.93-1.05,5.5-2.46,8.98-4.25,10.47-3.28-1.79-7.31-6.38-12.07-13.81-4.77-7.42-8.49-15.82-11.18-25.17-2.67-9.35-3.5-18.55-2.45-27.62,1.03-9.05,5.74-16.1,14.08-21.16,3.27-1.78,6.1-1.11,8.49,2.01,2.39,3.12,4.32,7.65,5.82,13.59,1.48,5.94,2.52,12.77,3.12,20.49.6,7.72.74,15.14.46,22.27ZM3322.69,563.41c-4.62,4.89-9.77,9.13-15.42,12.69-5.67,3.57-11.48,6.24-17.44,8.02-5.96,1.78-11.33,2.23-16.09,1.33-13.41-2.67-23.7-8.46-30.84-17.37-7.16-8.91-11.71-19.37-13.64-31.4-1.94-12.03-1.72-24.87.67-38.53,2.38-13.66,6.4-26.35,12.07-38.08,5.66-11.73,12.52-21.83,20.56-30.29,8.05-8.46,16.83-13.73,26.38-15.82-3.58,15.14-4.77,30.81-3.58,46.99,1.19,16.18,5.07,31.4,11.63,45.65,4.16,8.62,9.16,16.48,14.97,23.61,5.81,7.13,12.89,13.22,21.24,18.26-2.39,5.05-5.9,10.02-10.51,14.92ZM3817.33,479.01c.89-6.83,2.23-14.04,4.02-21.61,1.78-7.57,4.02-14.92,6.7-22.04,2.68-7.13,5.81-13.29,9.39-18.48,3.58-5.19,7.38-8.91,11.4-11.14,4.02-2.23,8.12-2.01,12.29.67,4.47,2.68,7.23,8.32,8.27,16.92,1.04,8.62,0,17.82-3.13,27.62-3.13,9.8-8.71,19-16.76,27.61-8.04,8.62-18.92,14.26-32.63,16.93-.6-4.15-.45-9.65.45-16.48ZM3997.48,479.01c.89-6.83,2.23-14.04,4.02-21.61,1.79-7.57,4.03-14.92,6.71-22.04,2.68-7.13,5.81-13.29,9.38-18.48,3.58-5.19,7.38-8.91,11.4-11.14,4.03-2.23,8.13-2.01,12.3.67,4.47,2.68,7.22,8.32,8.27,16.92,1.04,8.62,0,17.82-3.13,27.62-3.13,9.8-8.72,19-16.77,27.61-8.04,8.62-18.92,14.26-32.63,16.93-.59-4.15-.45-9.65.45-16.48ZM4164.89,505.06c-3.43-3.71-7.6-6.31-12.51-7.8-4.92-1.48-9.61-1.63-14.09-.44-4.47,1.19-7.3,4.31-8.49,9.35-2.39,9.5-6.19,19.23-11.4,29.17-5.22,9.96-11.62,19.38-19.22,28.29-7.6,8.91-16.17,16.78-25.7,23.61-9.55,6.83-19.53,11.73-29.95,14.69-10.44,3.28-19.08,3.65-25.94,1.12-6.85-2.52-12.29-6.83-16.31-12.91-4.02-6.09-6.93-13.44-8.72-22.06-1.78-8.61-2.83-17.51-3.13-26.72,16.99,1.19,32.12-1.85,45.38-9.13,13.25-7.27,24.51-16.93,33.75-28.95,9.23-12.02,16.24-25.53,21.01-40.53,4.76-15,7.44-29.92,8.05-44.77.28-13.96-1.8-25.76-6.27-35.41-4.46-9.65-10.5-17.15-18.1-22.49-7.6-5.35-16.31-8.46-26.15-9.36-9.83-.89-19.82.45-29.95,4.01-12.22,4.16-22.57,10.92-31.06,20.27-8.5,9.36-15.58,20.2-21.24,32.52-5.67,12.33-10.14,25.61-13.42,39.87-3.28,14.25-5.66,28.29-7.14,42.09-1.45,13.4-2.24,26.22-2.42,38.49-1.13,2.45-2.33,4.9-3.63,7.38-5.21,9.96-11.62,19.38-19.22,28.29-7.59,8.91-16.17,16.78-25.7,23.61-9.54,6.83-19.52,11.73-29.95,14.69-10.44,3.28-19.08,3.65-25.93,1.12-6.85-2.52-12.29-6.83-16.31-12.91-4.02-6.09-6.93-13.44-8.72-22.06-1.79-8.61-2.84-17.51-3.13-26.72,16.98,1.19,32.11-1.85,45.37-9.13,13.26-7.27,24.51-16.93,33.75-28.95,9.24-12.02,16.24-25.53,21.01-40.53,4.76-15,7.45-29.92,8.05-44.77.29-13.96-1.79-25.76-6.26-35.41-4.47-9.65-10.51-17.15-18.11-22.49-7.6-5.35-16.31-8.46-26.15-9.36-9.83-.89-19.82.45-29.95,4.01-12.22,4.16-22.57,10.92-31.06,20.27-8.5,9.36-15.58,20.2-21.24,32.52-5.66,12.33-10.13,25.61-13.41,39.87-3.28,14.25-5.66,28.29-7.15,42.09-.84,7.79-1.41,15.34-1.83,22.75-2.88,2.44-5.68,4.9-8.68,7.31-10.27,8.32-21.08,15.81-32.4,22.5-11.34,6.68-23.11,12.18-35.32,16.48-12.23,4.31-24.74,6.91-37.55,7.79l27.72-295.76c1.78-6.24.89-11.72-2.68-16.48-3.58-4.75-8.21-8.02-13.87-9.8-5.66-1.79-11.7-1.63-18.1.44-6.41,2.09-11.7,6.84-15.87,14.25-2.09,11.29-4.25,26.73-6.48,46.32-2.24,19.6-4.47,40.98-6.71,64.14-2.23,23.16-4.47,47.07-6.7,71.71-2.24,24.65-4.18,47.66-5.81,69.04-.08.95-.14,1.81-.21,2.75-2.61,2.2-5.14,4.42-7.84,6.6-10.28,8.32-21.09,15.81-32.41,22.5-11.33,6.68-23.1,12.18-35.31,16.48-12.23,4.31-24.75,6.91-37.56,7.79l27.72-295.76c1.79-6.24.9-11.72-2.68-16.48-3.58-4.75-8.2-8.02-13.86-9.8-5.66-1.79-11.7-1.63-18.11.44-6.41,2.09-11.69,6.84-15.86,14.25-2.09,11.29-4.25,26.73-6.48,46.32-2.24,19.6-4.48,40.98-6.71,64.14-2.24,23.16-4.47,47.07-6.71,71.71-2.23,24.65-4.17,47.66-5.81,69.04-.03.43-.06.82-.09,1.25-4.69,2.16-9.79,4.06-15.33,5.66-5.67,1.64-12.07,2.6-19.22,2.9,1.19-5.35,2.15-11.29,2.9-17.82.74-6.53,1.35-13.36,1.79-20.49.45-7.12.59-14.25.45-21.38-.16-7.13-.53-13.66-1.12-19.6-1.49-12.76-4.24-24.86-8.26-36.3-4.03-11.43-9.47-21-16.32-28.73-6.86-7.72-15.43-12.92-25.71-15.58-10.28-2.67-22.28-1.79-35.98,2.67-20.28-2.67-38.53-.81-54.77,5.57-16.24,6.39-30.32,15.66-42.24,27.84-11.92,12.18-21.68,26.5-29.28,42.99-7.6,16.48-12.67,33.41-15.2,50.77-1.08,7.36-1.6,14.69-1.76,22-4.61,9.41-9.66,17.64-15.23,24.55-7.89,9.8-16.09,17.82-24.58,24.05-8.5,6.24-16.92,10.99-25.26,14.26-8.35,3.27-15.8,5.5-22.35,6.68-7.75,1.49-15.2,1.64-22.35.45-7.15-1.18-13.72-4.6-19.67-10.24-4.77-4.15-8.42-10.84-10.95-20.04-2.54-9.21-4.02-19.67-4.47-31.4-.45-11.73,0-23.98,1.34-36.75,1.34-12.76,3.64-24.87,6.93-36.3,3.27-11.43,7.44-21.68,12.51-30.74,5.06-9.05,11.02-15.51,17.88-19.37,3.87.6,6.27,2.89,7.16,6.9.89,4.01,1.11,8.77.67,14.26-.45,5.5-1.12,11.14-2.01,16.92-.9,5.79-1.35,10.62-1.35,14.48,1.5,8.02,4.4,14.26,8.72,18.71,4.32,4.45,9.17,7.06,14.53,7.79,5.36.75,10.65-.51,15.87-3.79,5.21-3.26,9.46-8.46,12.74-15.59.3.3.74.45,1.34.45l6.26-56.56c1.79-7.72.59-14.55-3.58-20.49s-9.68-9.36-16.54-10.24c-8.64-12.47-20.34-19.08-35.09-19.82-14.75-.74-29.88,4.08-45.37,14.48-9.54,6.84-17.96,16.26-25.26,28.28-7.31,12.03-13.26,25.39-17.88,40.09-4.63,14.7-7.9,30.22-9.83,46.55-1.94,16.33-2.32,32.22-1.13,47.65,1.19,15.45,3.96,30,8.28,43.65,4.31,13.66,10.35,25.09,18.11,34.29,6.55,8.02,13.99,13.89,22.34,17.6,8.34,3.71,17.06,6.01,26.15,6.9,9.09.89,18.11.51,27.05-1.11,8.94-1.63,17.44-3.93,25.48-6.9,10.43-3.85,21.16-8.76,32.19-14.7,11.02-5.93,21.6-13.07,31.74-21.38,5.32-4.37,10.46-9.14,15.42-14.26,2.26,5.58,4.78,10.99,7.82,16.04,8.05,13.36,18.92,24.2,32.63,32.52,13.7,8.31,30.55,12.31,50.52,12.03,21.46-.3,41.27-5.71,59.45-16.26,18.18-10.53,33.08-26.06,44.71-46.55,17.41,0,34.53-2.86,51.37-8.54-.14,1.8-.28,3.69-.41,5.43-1.19,15.74-1.8,26.42-1.8,32.07-.29,9.8-.95,21.9-2,36.29-1.05,14.4-1.72,29.55-2.01,45.43-.3,15.88.29,31.92,1.78,48.11,1.5,16.18,4.62,30.88,9.39,44.1,4.76,13.21,11.54,24.42,20.34,33.63,8.79,9.2,20.34,14.7,34.65,16.48,15.19,2.07,28.3-.6,39.33-8.02,11.02-7.42,19.97-17.59,26.83-30.51,6.85-12.92,11.69-27.84,14.52-44.77,2.83-16.92,3.65-33.93,2.46-51-1.19-17.08-4.32-33.18-9.39-48.32-5.07-15.15-12.07-27.62-21.01-37.42,5.37-1.47,11.77-4.29,19.23-8.46,7.44-4.15,15.12-8.83,23.02-14.03,1.94-1.28,3.85-2.62,5.79-3.93-.73,10.52-1.1,18.03-1.1,22.42-.29,9.8-.96,21.9-2.01,36.29-1.04,14.4-1.71,29.55-2.01,45.43-.29,15.88.3,31.92,1.79,48.11,1.49,16.18,4.62,30.88,9.38,44.1,4.77,13.21,11.55,24.42,20.34,33.63,8.79,9.2,20.34,14.7,34.65,16.48,15.19,2.07,28.31-.6,39.34-8.02,11.02-7.42,19.96-17.59,26.82-30.51,6.85-12.92,11.69-27.84,14.53-44.77,2.83-16.92,3.64-33.93,2.46-51-1.2-17.08-4.33-33.18-9.39-48.32-5.07-15.15-12.07-27.62-21.02-37.42,5.37-1.47,11.78-4.29,19.23-8.46,7.45-4.15,15.12-8.83,23.02-14.03,4.11-2.7,8.19-5.49,12.25-8.35,1.54,14.52,4.84,27.26,10.1,37.97,6.41,13.07,15.12,23.16,26.15,30.29,11.02,7.12,23.99,11.06,38.9,11.8,14.9.73,31.13-2.01,48.73-8.24,13.1-4.75,24.5-10.69,34.19-17.81,9.68-7.13,18.4-15.82,26.15-26.06.45-.59.87-1.24,1.31-1.84,1.38,4.16,2.91,8.15,4.73,11.85,6.41,13.07,15.12,23.16,26.15,30.29,11.02,7.12,23.99,11.06,38.89,11.8,14.9.73,31.14-2.01,48.73-8.24,13.11-4.75,24.51-10.69,34.2-17.81,9.68-7.13,18.39-15.82,26.15-26.06,7.74-10.25,14.81-22.05,21.23-35.41,6.41-13.36,12.88-28.65,19.45-45.88,1.19-4.75.06-8.98-3.36-12.69Z"/>
</svg>