<?xml version="1.0" encoding="UTF-8"?>
<svg id="Layer_2" data-name="Layer 2" xmlns="http://www.w3.org/2000/svg" viewBox="0 0 630.68 913">
  <defs>
    <style>
      .cls-1 {
        fill: #0d0c22;
      }

      .cls-2 {
        fill: #1a1b1f;
      }

      .cls-3 {
        fill: #e5e5ef;
      }
    </style>
  </defs>
  <g id="Layer_1-2" data-name="Layer 1">
    <path class="cls-1" d="M564.72,212.38l-.63-.37-1.45-.44c.58.49,1.31.78,2.08.81h0Z"/>
    <path class="cls-1" d="M573.85,277.61l-.7.2.7-.2Z"/>
    <path class="cls-1" d="M564.99,212.28c-.09-.01-.18-.03-.26-.06,0,.06,0,.12,0,.17.1-.01.19-.05.26-.11h0Z"/>
    <path class="cls-1" d="M564.73,212.39h.09v-.06l-.09.06Z"/>
    <path class="cls-1" d="M573.29,277.49l1.06-.6.39-.22.36-.38c-.67.29-1.28.7-1.81,1.2h0Z"/>
    <path class="cls-1" d="M566.55,213.8l-1.03-.98-.7-.38c.38.66,1,1.15,1.73,1.36h0Z"/>
    <path class="cls-3" d="M337.38,421.76c-32.79,14.04-70.01,29.96-118.24,29.96-20.18-.04-40.26-2.81-59.69-8.23l33.36,342.5c1.18,14.32,7.7,27.66,18.27,37.39,10.57,9.73,24.41,15.13,38.77,15.13,0,0,47.3,2.46,63.08,2.46,16.99,0,67.92-2.46,67.92-2.46,14.36,0,28.2-5.4,38.76-15.13,10.57-9.73,17.08-23.08,18.26-37.39l35.73-378.48c-15.97-5.45-32.08-9.08-50.25-9.08-31.42-.01-56.73,10.81-85.98,23.32Z"/>
    <path class="cls-1" d="M56.17,275.64l.57.53.37.22c-.28-.28-.6-.53-.93-.75h0Z"/>
    <path class="cls-2" d="M627.87,244.02l-5.02-25.34c-4.51-22.74-14.74-44.22-38.08-52.43-7.48-2.63-15.97-3.76-21.7-9.2-5.74-5.44-7.43-13.89-8.76-21.73-2.46-14.38-4.77-28.78-7.28-43.14-2.17-12.34-3.89-26.21-9.56-37.54-7.37-15.21-22.66-24.1-37.87-29.98-7.79-2.91-15.74-5.37-23.82-7.37-37.99-10.02-77.93-13.71-117.02-15.81-46.91-2.59-93.95-1.81-140.75,2.33-34.83,3.17-71.52,7-104.62,19.05-12.1,4.41-24.57,9.7-33.76,19.05-11.29,11.48-14.97,29.24-6.73,43.57,5.86,10.17,15.78,17.35,26.31,22.11,13.71,6.12,28.03,10.79,42.72,13.9,40.9,9.04,83.26,12.59,125.05,14.1,46.31,1.87,92.7.35,138.79-4.53,11.4-1.25,22.78-2.76,34.13-4.51,13.38-2.05,21.96-19.54,18.02-31.73-4.72-14.57-17.39-20.22-31.73-18.02-2.11.33-4.21.64-6.33.95l-1.52.22c-4.86.61-9.71,1.19-14.57,1.72-10.03,1.08-20.09,1.97-30.17,2.65-22.58,1.57-45.21,2.3-67.84,2.33-22.23,0-44.48-.63-66.66-2.09-10.12-.66-20.22-1.51-30.29-2.53-4.58-.48-9.15-.98-13.72-1.55l-4.35-.55-.94-.14-4.51-.65c-9.21-1.39-18.42-2.98-27.54-4.91-.92-.2-1.74-.72-2.33-1.45-.59-.73-.91-1.65-.91-2.59s.32-1.86.91-2.59c.59-.73,1.41-1.25,2.33-1.45h.17c7.9-1.68,15.86-3.12,23.84-4.37,2.66-.42,5.33-.83,8.01-1.23h.07c5-.33,10.02-1.23,15-1.82,43.28-4.5,86.82-6.04,130.31-4.59,21.11.61,42.22,1.85,63.23,3.99,4.52.47,9.02.96,13.51,1.51,1.72.21,3.45.45,5.18.66l3.49.5c10.17,1.51,20.29,3.35,30.35,5.51,14.91,3.24,34.06,4.3,40.69,20.63,2.11,5.18,3.07,10.94,4.24,16.39l1.49,6.94c.04.12.07.25.09.38,3.51,16.38,7.03,32.75,10.55,49.13.26,1.21.26,2.46.02,3.67-.25,1.21-.74,2.36-1.45,3.37-.71,1.01-1.62,1.87-2.68,2.51-1.05.65-2.23,1.07-3.46,1.24h-.1l-2.15.29-2.12.28c-6.73.88-13.47,1.69-20.22,2.46-13.29,1.51-26.6,2.82-39.93,3.93-26.49,2.2-53.03,3.65-79.63,4.34-13.55.36-27.1.53-40.64.5-53.91-.04-107.77-3.18-161.32-9.38-5.8-.69-11.59-1.43-17.39-2.17,4.5.58-3.27-.44-4.84-.66-3.68-.52-7.37-1.05-11.05-1.61-12.37-1.85-24.66-4.14-37.01-6.14-14.92-2.46-29.2-1.23-42.69,6.14-11.08,6.06-20.05,15.36-25.71,26.65-5.82,12.04-7.55,25.14-10.16,38.08-2.6,12.93-6.66,26.85-5.12,40.13,3.3,28.66,23.34,51.94,52.15,57.15,27.11,4.91,54.36,8.89,81.69,12.28,107.35,13.15,215.81,14.72,323.5,4.69,8.77-.82,17.53-1.71,26.27-2.68,2.73-.3,5.49.01,8.09.92,2.59.91,4.95,2.38,6.9,4.32,1.95,1.94,3.44,4.28,4.37,6.87.93,2.59,1.26,5.35.98,8.08l-2.73,26.51c-5.49,53.56-10.99,107.12-16.48,160.67-5.73,56.24-11.5,112.47-17.31,168.7-1.64,15.84-3.27,31.67-4.91,47.5-1.57,15.59-1.79,31.66-4.75,47.07-4.67,24.22-21.07,39.1-44.99,44.54-21.92,4.99-44.31,7.61-66.79,7.81-24.92.14-49.83-.97-74.75-.84-26.6.15-59.19-2.31-79.73-22.11-18.04-17.39-20.54-44.62-22.99-68.17-3.27-31.17-6.52-62.34-9.74-93.51l-18.06-173.29-11.68-112.13c-.2-1.86-.39-3.69-.58-5.55-1.4-13.38-10.87-26.47-25.79-25.79-12.77.57-27.29,11.42-25.79,25.79l8.66,83.13,17.91,171.96c5.1,48.84,10.19,97.7,15.27,146.56.98,9.36,1.9,18.74,2.94,28.1,5.61,51.14,44.67,78.71,93.04,86.47,28.25,4.54,57.19,5.48,85.86,5.95,36.75.59,73.87,2,110.02-4.66,53.56-9.83,93.75-45.59,99.49-101.07,1.64-16.02,3.28-32.04,4.91-48.06,5.45-52.99,10.88-105.99,16.31-159l17.76-173.19,8.14-79.37c.41-3.93,2.07-7.64,4.74-10.55,2.67-2.92,6.21-4.9,10.1-5.65,15.32-2.98,29.96-8.08,40.85-19.74,17.34-18.56,20.79-42.76,14.67-67.15ZM51.7,261.15c.23-.11-.2,1.89-.38,2.82-.04-1.41.04-2.66.38-2.82ZM53.19,272.64c.12-.09.49.4.87.99-.58-.54-.95-.95-.88-.99h.01ZM54.65,274.57c.53.9.81,1.46,0,0h0ZM57.59,276.95h.07c0,.09.14.17.18.26-.08-.1-.17-.18-.27-.26h.01ZM571.64,273.39c-5.5,5.23-13.79,7.66-21.99,8.88-91.87,13.63-185.09,20.54-277.97,17.49-66.47-2.27-132.25-9.65-198.06-18.95-6.45-.91-13.44-2.09-17.87-6.84-8.35-8.97-4.25-27.02-2.08-37.85,1.99-9.92,5.8-23.15,17.6-24.57,18.42-2.16,39.82,5.61,58.05,8.38,21.94,3.35,43.97,6.03,66.08,8.04,94.36,8.6,190.29,7.26,284.23-5.32,17.12-2.3,34.18-4.97,51.18-8.02,15.15-2.71,31.93-7.81,41.09,7.87,6.28,10.69,7.11,24.98,6.14,37.06-.3,5.26-2.6,10.21-6.42,13.83h.01Z"/>
  </g>
</svg>